<svg width="98" height="88" xmlns="http://www.w3.org/2000/svg" xmlns:xlink="http://www.w3.org/1999/xlink" xml:space="preserve" overflow="hidden"><defs><clipPath id="clip0"><rect x="476" y="163" width="98" height="88"/></clipPath></defs><g clip-path="url(#clip0)" transform="translate(-476 -163)"><path d="M184.888 78.2977C188.173 82.1802 189.766 88.0538 189.766 95.8188L189.766 129.268 172.743 129.268 172.743 96.6152C172.743 92.8323 172.046 90.1444 170.652 88.3524 169.258 86.66 167.068 85.7641 164.181 85.7641 160.597 85.7641 157.81 86.8591 155.62 89.1488 153.43 91.4385 152.434 94.4251 152.434 98.2081L152.434 129.268 135.411 129.268 135.411 73.9174 151.936 73.9174 151.936 81.782C153.927 78.7954 156.416 76.5057 159.602 74.9129 162.688 73.3201 166.272 72.5236 170.154 72.5236 176.725 72.5236 181.702 74.5147 184.888 78.2977" fill="#FFFFFF" transform="matrix(1.00553 0 0 1 439.763 116.674)"/><path d="M208.482 128.472C204.201 127.277 200.518 125.585 197.432 123.494L201.911 111.747C204.898 113.738 208.283 115.331 211.867 116.526 215.45 117.621 219.134 118.218 222.817 118.218 225.406 118.218 227.496 117.82 228.99 116.924 230.483 116.028 231.18 114.833 231.18 113.34 231.18 111.946 230.682 110.951 229.686 110.154 228.691 109.358 226.799 108.761 224.012 108.163L214.953 106.172C209.577 104.978 205.694 103.086 203.106 100.597 200.617 98.1085 199.323 94.6242 199.323 90.2439 199.323 86.7596 200.319 83.773 202.31 81.0851 204.301 78.4968 207.088 76.4062 210.772 74.9129 214.455 73.4196 218.537 72.6232 223.216 72.6232 227.198 72.6232 231.08 73.2205 234.863 74.4151 238.646 75.6098 242.031 77.3021 245.017 79.4923L240.538 90.7417C234.664 86.66 228.89 84.669 223.116 84.669 220.528 84.669 218.437 85.1668 216.944 86.0627 215.45 86.9587 214.654 88.2529 214.654 89.9452 214.654 91.1399 215.152 92.1354 216.048 92.7327 216.944 93.4296 218.537 94.0269 220.826 94.6242L230.184 96.8143C235.859 98.1085 239.94 100 242.529 102.588 245.117 105.177 246.411 108.661 246.411 113.141 246.411 118.517 244.321 122.698 240.04 125.684 235.759 128.771 229.886 130.264 222.519 130.264 217.442 130.264 212.763 129.667 208.482 128.472" fill="#FFFFFF" transform="matrix(1.00553 0 0 1 439.763 116.674)"/><path d="M322.071 128.472C317.79 127.277 314.107 125.585 311.02 123.494L315.5 111.747C318.487 113.738 321.872 115.331 325.455 116.526 329.039 117.621 332.723 118.218 336.406 118.218 338.995 118.218 341.085 117.82 342.578 116.924 344.072 116.028 344.769 114.833 344.769 113.34 344.769 111.946 344.271 110.951 343.275 110.154 342.28 109.358 340.388 108.761 337.601 108.163L328.542 106.172C323.166 104.978 319.283 103.086 316.695 100.597 314.206 98.1085 312.912 94.6242 312.912 90.2439 312.912 86.7596 313.907 83.773 315.898 81.0851 317.889 78.4968 320.677 76.4062 324.36 74.9129 328.044 73.4196 332.125 72.6232 336.804 72.6232 340.786 72.6232 344.669 73.2205 348.452 74.4151 352.235 75.6098 355.62 77.3021 358.606 79.4923L354.126 90.7417C348.253 86.66 342.479 84.669 336.705 84.669 334.116 84.669 332.026 85.1668 330.533 86.0627 329.039 86.9587 328.243 88.2529 328.243 89.9452 328.243 91.1399 328.741 92.1354 329.637 92.7327 330.533 93.4296 332.125 94.0269 334.415 94.6242L343.773 96.8143C349.447 98.1085 353.529 100 356.117 102.588 358.706 105.177 360 108.661 360 113.141 360 118.517 357.909 122.698 353.629 125.684 349.348 128.771 343.474 130.264 336.108 130.264 331.03 130.264 326.351 129.667 322.071 128.472" fill="#FFFFFF" transform="matrix(1.00553 0 0 1 439.763 116.674)"/><path d="M71.3987 49.5271 37.551 129.268 60.6471 129.268 93.3002 49.5271Z" fill="#FCB618" transform="matrix(1.00553 0 0 1 439.763 116.674)"/><path d="M97.2822 52.1155 86.3315 78.895 106.939 129.268 130.134 129.268Z" fill="#FFFFFF" transform="matrix(1.00553 0 0 1 439.763 116.674)"/><path d="M293.897 73.9174 279.96 106.67 266.023 73.9174 249.199 73.9174 271.598 126.381 261.643 149.676 278.467 149.676 310.722 73.9174Z" fill="#FFFFFF" transform="matrix(1.00553 0 0 1 439.763 116.674)"/></g></svg>