<?xml version="1.0" encoding="utf-8"?>
<!-- Generator: Adobe Illustrator 27.8.1, SVG Export Plug-In . SVG Version: 6.00 Build 0)  -->
<svg version="1.1" id="Layer_1" xmlns="http://www.w3.org/2000/svg" xmlns:xlink="http://www.w3.org/1999/xlink" x="0px" y="0px"
	 viewBox="0 0 400 200" style="enable-background:new 0 0 400 200;" xml:space="preserve">
<style type="text/css">
	.st0{fill:#FFFFFF;}
	.st1{fill:#FCB618;}
</style>
<g id="Ansys_Logo_Blk_Screen_00000055667838048801124960000008909429316679592099_">
	<g>
		<g>
			<path class="st0" d="M185.72,78.65c3.3,3.9,4.9,9.8,4.9,17.6v33.6h-17.1v-32.8c0-3.8-0.7-6.5-2.1-8.3c-1.4-1.7-3.6-2.6-6.5-2.6
				c-3.6,0-6.4,1.1-8.6,3.4c-2.2,2.3-3.2,5.3-3.2,9.1v31.2h-17.1v-55.6h16.6v7.9c2-3,4.5-5.3,7.7-6.9c3.1-1.6,6.7-2.4,10.6-2.4
				C177.52,72.85,182.52,74.85,185.72,78.65"/>
			<path class="st0" d="M209.42,129.05c-4.3-1.2-8-2.9-11.1-5l4.5-11.8c3,2,6.4,3.6,10,4.8c3.6,1.1,7.3,1.7,11,1.7
				c2.6,0,4.7-0.4,6.2-1.3c1.5-0.9,2.2-2.1,2.2-3.6c0-1.4-0.5-2.4-1.5-3.2s-2.9-1.4-5.7-2l-9.1-2c-5.4-1.2-9.3-3.1-11.9-5.6
				c-2.5-2.5-3.8-6-3.8-10.4c0-3.5,1-6.5,3-9.2c2-2.6,4.8-4.7,8.5-6.2c3.7-1.5,7.8-2.3,12.5-2.3c4,0,7.9,0.6,11.7,1.8
				c3.8,1.2,7.2,2.9,10.2,5.1l-4.5,11.3c-5.9-4.1-11.7-6.1-17.5-6.1c-2.6,0-4.7,0.5-6.2,1.4s-2.3,2.2-2.3,3.9c0,1.2,0.5,2.2,1.4,2.8
				c0.9,0.7,2.5,1.3,4.8,1.9l9.4,2.2c5.7,1.3,9.8,3.2,12.4,5.8s3.9,6.1,3.9,10.6c0,5.4-2.1,9.6-6.4,12.6c-4.3,3.1-10.2,4.6-17.6,4.6
				C218.42,130.85,213.72,130.25,209.42,129.05"/>
			<path class="st0" d="M323.52,129.05c-4.3-1.2-8-2.9-11.1-5l4.5-11.8c3,2,6.4,3.6,10,4.8c3.6,1.1,7.3,1.7,11,1.7
				c2.6,0,4.7-0.4,6.2-1.3c1.5-0.9,2.2-2.1,2.2-3.6c0-1.4-0.5-2.4-1.5-3.2s-2.9-1.4-5.7-2l-9.1-2c-5.4-1.2-9.3-3.1-11.9-5.6
				c-2.5-2.5-3.8-6-3.8-10.4c0-3.5,1-6.5,3-9.2c2-2.6,4.8-4.7,8.5-6.2s7.8-2.3,12.5-2.3c4,0,7.9,0.6,11.7,1.8
				c3.8,1.2,7.2,2.9,10.2,5.1l-4.5,11.3c-5.9-4.1-11.7-6.1-17.5-6.1c-2.6,0-4.7,0.5-6.2,1.4s-2.3,2.2-2.3,3.9c0,1.2,0.5,2.2,1.4,2.8
				c0.9,0.7,2.5,1.3,4.8,1.9l9.4,2.2c5.7,1.3,9.8,3.2,12.4,5.8s3.9,6.1,3.9,10.6c0,5.4-2.1,9.6-6.4,12.6c-4.3,3.1-10.2,4.6-17.6,4.6
				C332.52,130.85,327.82,130.25,323.52,129.05"/>
		</g>
		<g>
			<polygon class="st1" points="71.72,49.75 37.72,129.85 60.92,129.85 93.72,49.75 			"/>
			<polygon class="st0" points="97.72,52.35 86.72,79.25 107.42,129.85 130.72,129.85 			"/>
		</g>
		<polygon class="st0" points="295.22,74.25 281.22,107.15 267.22,74.25 250.32,74.25 272.82,126.95 262.82,150.35 279.72,150.35
			312.12,74.25 		"/>
	</g>
</g>
</svg>
